<svg xmlns="http://www.w3.org/2000/svg" xmlns:xlink="http://www.w3.org/1999/xlink" width="307.998" height="210.848" viewBox="0 0 307.998 210.848"><defs><style>.a{fill:url(#a);}.b,.f,.g{fill:#6c63ff;}.c{opacity:0.2;}.d{fill:#3f3d56;}.e{opacity:0.03;}.f{opacity:0.3;}.g,.j{opacity:0.1;}.h{fill:#2f2e41;}.i{fill:#fff;opacity:0.6;}.k,.l{fill:none;stroke-miterlimit:10;stroke-width:4px;}.k{stroke:#2f2e41;}.l{stroke:#3f3d56;}.m{fill:#b28b67;}.n{fill:#2f3676;}.o{fill:#e4e4e4;}.p{fill:#5c63ab;}.q{fill:#db2721;}.r{fill:#ff4133;}.s{fill:#191847;}.t{filter:url(#b);}</style><linearGradient id="a" x1="0.5" y1="1" x2="0.5" gradientUnits="objectBoundingBox"><stop offset="0" stop-color="#6c63ff"/><stop offset="1" stop-color="#3f3d56"/></linearGradient><filter id="b" x="232.15" y="29.114" width="61.112" height="50.293" filterUnits="userSpaceOnUse"><feOffset dy="8" input="SourceAlpha"/><feGaussianBlur stdDeviation="5" result="c"/><feFlood flood-opacity="0.161"/><feComposite operator="in" in2="c"/><feComposite in="SourceGraphic"/></filter></defs><g transform="translate(-21 -135.39)"><path class="a" d="M300.592,179.222q-1.815-2.546-3.855-4.926a72.23,72.23,0,0,0-25.1-18.866,70.9,70.9,0,0,0-8.107-3.093q-2.878-.9-5.854-1.556l-3.744-.734a72.19,72.19,0,0,0-54.216,12.7q-2.792-.34-5.652-.454-.109-.3-.226-.6-.954-2.525-2.046-4.978a97.059,97.059,0,0,0-16.18-25.115c-.306-.342-.612-.684-.923-1.021a98,98,0,0,0-14.664-13.111A96.75,96.75,0,0,0,103.185,99h-.137q-2.271,0-4.514.106l-5.774.436c-.474.049-.949.1-1.421.161h0l-5.836.881q-2.318.42-4.6.957A97.271,97.271,0,0,0,28.244,134.22q-2.458,2.963-4.667,6.126c-.7,1-1.387,2.009-2.048,3.036-.319.493-.633.985-.944,1.483q-1.54,2.466-2.919,5.027-1.47,2.714-2.769,5.527a.372.372,0,0,0-.021.047A96.066,96.066,0,0,0,8.465,174.26h0q-.589,2.551-1.037,5.149-.176,1-.327,2l-.031.223c-.259,1.815-.49,3.63-.659,5.478l-.226.021c.018.054.036.109.049.166a1.682,1.682,0,0,0,.15.08c-.021.236-.039.472-.057.705a2.232,2.232,0,0,1-.049.625Q6,192.333,6,196.051a96.553,96.553,0,0,0,11.029,44.971l.1.192a97.44,97.44,0,0,0,31.018,34.86A96.444,96.444,0,0,0,82.4,290.9l2.144.438q4.444.861,9.03,1.3,4.667.451,9.471.454a97.557,97.557,0,0,0,13.308-.907H230.53l.928.143a72.03,72.03,0,0,0,69.134-113.109Z" transform="translate(15 53.137)"/><path class="b" d="M685.229,436.144a72.149,72.149,0,0,1-36.221,62.515H508.63q-.259-1.854-.469-3.7c-.111-.923-.215-1.843-.314-2.766-.171-1.6-.321-3.217-.438-4.845-.622-8.716-.259-17.63,3.215-25.431A30.8,30.8,0,0,1,512.1,459a32.337,32.337,0,0,1,2.709-3.985,36.256,36.256,0,0,1,2.852-3.171,43.234,43.234,0,0,1,4.332-3.733c.729-.552,1.478-1.089,2.24-1.6l.14-.093A74.667,74.667,0,0,1,536.9,439.8l.9-.373.233-.1c.423-.176.845-.345,1.268-.518l.168-.068q3.425-1.364,6.9-2.53,5.9-1.988,11.97-3.42,1.509-.358,3.028-.677,1.47-.314,2.948-.591,3.269-.622,6.564-1.079c.228-.031.454-.062.682-.088l1.434-.2.259-.031c.412-.052.827-.1,1.242-.145,1.693-.194,3.388-.36,5.084-.519h0a.562.562,0,0,0,.2-.023h.016q2.694-.228,5.393-.425l1.26-.093,1.037-.073,6.16-.436c1.664-.127,3.326-.259,4.988-.407.283-.023.563-.047.845-.075l.573-.054a1.074,1.074,0,0,0,.156-.016h.073l.962-.1a.414.414,0,0,1,.057,0h0c.277-.026.55-.054.824-.086,2.2-.228,4.407-.5,6.6-.827l.669-.1a94.346,94.346,0,0,0,11.244-2.432q1.265-.36,2.515-.762,1.434-.464,2.852-.985l.4-.148q.988-.389,1.96-.778h0c.944-.389,1.877-.806,2.795-1.244l.119-.055q1.639-.778,3.215-1.67c.487-.275.972-.56,1.449-.853a45.919,45.919,0,0,0,6.808-5.009c.161-.145.319-.288.475-.433l.052-.047a70.8,70.8,0,0,0,5.813-6.222c2.577-3.028,5.071-6.142,7.915-8.913q1.244-1.214,2.593-2.333c1.037-.856,2.1-1.662,3.194-2.419l.164-.114a46.99,46.99,0,0,1,5.019-3q2.035,2.377,3.855,4.926A71.67,71.67,0,0,1,685.229,436.144Z" transform="translate(-356.231 -161.93)"/><path class="c" d="M685.229,436.144a72.149,72.149,0,0,1-36.221,62.515H508.63q-.259-1.854-.469-3.7c-.111-.923-.215-1.843-.314-2.766-.171-1.6-.321-3.217-.438-4.845-.622-8.716-.259-17.63,3.215-25.431A30.8,30.8,0,0,1,512.1,459a32.337,32.337,0,0,1,2.709-3.985,36.256,36.256,0,0,1,2.852-3.171,43.234,43.234,0,0,1,4.332-3.733c.729-.552,1.478-1.089,2.24-1.6l.14-.093A74.667,74.667,0,0,1,536.9,439.8l.9-.373.233-.1c.423-.176.845-.345,1.268-.518l.168-.068q3.425-1.364,6.9-2.53,5.9-1.988,11.97-3.42,1.509-.358,3.028-.677,1.47-.314,2.948-.591,3.269-.622,6.564-1.079c.228-.031.454-.062.682-.088l1.434-.2.259-.031c.412-.052.827-.1,1.242-.145,1.693-.194,3.388-.36,5.084-.519h0a.562.562,0,0,0,.2-.023h.016q2.694-.228,5.393-.425l1.26-.093,1.037-.073,6.16-.436c1.664-.127,3.326-.259,4.988-.407.283-.023.563-.047.845-.075l.573-.054a1.074,1.074,0,0,0,.156-.016h.073l.962-.1a.414.414,0,0,1,.057,0h0c.277-.026.55-.054.824-.086,2.2-.228,4.407-.5,6.6-.827l.669-.1a94.346,94.346,0,0,0,11.244-2.432q1.265-.36,2.515-.762,1.434-.464,2.852-.985l.4-.148q.988-.389,1.96-.778h0c.944-.389,1.877-.806,2.795-1.244l.119-.055q1.639-.778,3.215-1.67c.487-.275.972-.56,1.449-.853a45.919,45.919,0,0,0,6.808-5.009c.161-.145.319-.288.475-.433l.052-.047a70.8,70.8,0,0,0,5.813-6.222c2.577-3.028,5.071-6.142,7.915-8.913q1.244-1.214,2.593-2.333c1.037-.856,2.1-1.662,3.194-2.419l.164-.114a46.99,46.99,0,0,1,5.019-3q2.035,2.377,3.855,4.926A71.67,71.67,0,0,1,685.229,436.144Z" transform="translate(-356.231 -161.93)"/><ellipse class="d" cx="1.403" cy="1.838" rx="1.403" ry="1.838" transform="translate(70.746 269.068)"/><ellipse class="d" cx="1.403" cy="1.838" rx="1.403" ry="1.838" transform="translate(70.746 266.822)"/><ellipse class="d" cx="1.403" cy="1.838" rx="1.403" ry="1.838" transform="translate(70.746 264.577)"/><ellipse class="d" cx="1.403" cy="1.838" rx="1.403" ry="1.838" transform="translate(70.746 262.332)"/><ellipse class="d" cx="1.403" cy="1.838" rx="1.403" ry="1.838" transform="translate(70.746 260.087)"/><ellipse class="d" cx="1.403" cy="1.838" rx="1.403" ry="1.838" transform="translate(70.746 257.842)"/><ellipse class="d" cx="1.403" cy="1.838" rx="1.403" ry="1.838" transform="translate(70.746 255.597)"/><path class="b" d="M189.172,414.738a6.815,6.815,0,0,0,.519-.778l-3.687-.6,3.987.029a6.741,6.741,0,0,0,.127-5.325l-5.351,2.774,4.926-3.63a6.723,6.723,0,1,0-11.1,7.518,6.717,6.717,0,0,0-.778,1.226l4.789,2.486-5.1-1.714a6.722,6.722,0,0,0,1.084,6.313,6.723,6.723,0,1,0,10.567,0,6.72,6.72,0,0,0,0-8.312Z" transform="translate(-111.771 -172.669)"/><path class="e" d="M177.238,461.627a6.7,6.7,0,0,0,1.438,4.147,6.723,6.723,0,1,0,10.568,0C190.139,464.64,177.238,460.873,177.238,461.627Z" transform="translate(-111.843 -215.403)"/><ellipse class="d" cx="1.403" cy="1.838" rx="1.403" ry="1.838" transform="translate(85.524 275.031)"/><ellipse class="d" cx="1.403" cy="1.838" rx="1.403" ry="1.838" transform="translate(85.524 272.785)"/><ellipse class="d" cx="1.403" cy="1.838" rx="1.403" ry="1.838" transform="translate(85.524 270.54)"/><ellipse class="d" cx="1.403" cy="1.838" rx="1.403" ry="1.838" transform="translate(85.524 268.295)"/><ellipse class="d" cx="1.403" cy="1.838" rx="1.403" ry="1.838" transform="translate(85.524 266.05)"/><ellipse class="d" cx="1.403" cy="1.838" rx="1.403" ry="1.838" transform="translate(85.524 263.805)"/><ellipse class="d" cx="1.403" cy="1.838" rx="1.403" ry="1.838" transform="translate(85.524 261.56)"/><path class="b" d="M246.172,437.738a6.811,6.811,0,0,0,.518-.778l-3.687-.6,3.987.029a6.741,6.741,0,0,0,.127-5.325l-5.351,2.774,4.926-3.63a6.723,6.723,0,1,0-11.1,7.518,6.724,6.724,0,0,0-.778,1.226l4.789,2.486-5.1-1.714a6.723,6.723,0,0,0,1.084,6.313,6.723,6.723,0,1,0,10.567,0,6.72,6.72,0,0,0,0-8.312Z" transform="translate(-153.993 -189.706)"/><path class="e" d="M234.238,484.627a6.7,6.7,0,0,0,1.438,4.147,6.723,6.723,0,1,0,10.568,0C247.139,487.64,234.238,483.873,234.238,484.627Z" transform="translate(-154.065 -232.44)"/><ellipse class="d" cx="1.403" cy="1.838" rx="1.403" ry="1.838" transform="translate(180.672 280.475)"/><ellipse class="d" cx="1.403" cy="1.838" rx="1.403" ry="1.838" transform="translate(180.672 278.23)"/><ellipse class="d" cx="1.403" cy="1.838" rx="1.403" ry="1.838" transform="translate(180.672 275.985)"/><ellipse class="d" cx="1.403" cy="1.838" rx="1.403" ry="1.838" transform="translate(180.672 273.74)"/><ellipse class="d" cx="1.403" cy="1.838" rx="1.403" ry="1.838" transform="translate(180.672 271.494)"/><ellipse class="d" cx="1.403" cy="1.838" rx="1.403" ry="1.838" transform="translate(180.672 269.249)"/><ellipse class="d" cx="1.403" cy="1.838" rx="1.403" ry="1.838" transform="translate(180.672 267.004)"/><path class="b" d="M613.172,458.738a6.815,6.815,0,0,0,.519-.778l-3.687-.6,3.987.029a6.741,6.741,0,0,0,.127-5.325l-5.351,2.774,4.926-3.63a6.723,6.723,0,1,0-11.1,7.518,6.737,6.737,0,0,0-.778,1.226l4.789,2.486-5.1-1.714a6.722,6.722,0,0,0,1.084,6.313,6.722,6.722,0,1,0,10.567,0,6.72,6.72,0,0,0,0-8.312Z" transform="translate(-425.845 -205.262)"/><path class="e" d="M601.238,505.627a6.7,6.7,0,0,0,1.438,4.147,6.723,6.723,0,1,0,10.568,0C614.138,508.64,601.238,504.873,601.238,505.627Z" transform="translate(-425.917 -247.995)"/><ellipse class="d" cx="1.403" cy="1.838" rx="1.403" ry="1.838" transform="translate(195.449 289.549)"/><ellipse class="d" cx="1.403" cy="1.838" rx="1.403" ry="1.838" transform="translate(195.449 287.304)"/><ellipse class="d" cx="1.403" cy="1.838" rx="1.403" ry="1.838" transform="translate(195.449 285.059)"/><ellipse class="d" cx="1.403" cy="1.838" rx="1.403" ry="1.838" transform="translate(195.449 282.814)"/><ellipse class="d" cx="1.403" cy="1.838" rx="1.403" ry="1.838" transform="translate(195.449 280.568)"/><ellipse class="d" cx="1.403" cy="1.838" rx="1.403" ry="1.838" transform="translate(195.449 278.323)"/><ellipse class="d" cx="1.403" cy="1.838" rx="1.403" ry="1.838" transform="translate(195.449 276.078)"/><path class="b" d="M670.172,493.738a6.768,6.768,0,0,0,.518-.778l-3.687-.6,3.987.029a6.741,6.741,0,0,0,.127-5.325l-5.351,2.774,4.926-3.63a6.723,6.723,0,1,0-11.1,7.518,6.716,6.716,0,0,0-.778,1.226l4.788,2.486-5.1-1.714a6.723,6.723,0,0,0,1.084,6.313,6.723,6.723,0,1,0,10.568,0,6.72,6.72,0,0,0,0-8.312Z" transform="translate(-468.067 -231.188)"/><path class="e" d="M658.238,540.627a6.7,6.7,0,0,0,1.438,4.147,6.723,6.723,0,1,0,10.568,0C671.138,543.64,658.238,539.873,658.238,540.627Z" transform="translate(-468.14 -273.921)"/><ellipse class="d" cx="1.403" cy="1.838" rx="1.403" ry="1.838" transform="translate(210.486 301.216)"/><ellipse class="d" cx="1.403" cy="1.838" rx="1.403" ry="1.838" transform="translate(210.486 298.971)"/><ellipse class="d" cx="1.403" cy="1.838" rx="1.403" ry="1.838" transform="translate(210.486 296.725)"/><ellipse class="d" cx="1.403" cy="1.838" rx="1.403" ry="1.838" transform="translate(210.486 294.48)"/><ellipse class="d" cx="1.403" cy="1.838" rx="1.403" ry="1.838" transform="translate(210.486 292.235)"/><ellipse class="d" cx="1.403" cy="1.838" rx="1.403" ry="1.838" transform="translate(210.486 289.99)"/><ellipse class="d" cx="1.403" cy="1.838" rx="1.403" ry="1.838" transform="translate(210.486 287.745)"/><path class="b" d="M728.172,538.738a6.861,6.861,0,0,0,.519-.778l-3.687-.6,3.987.029a6.74,6.74,0,0,0,.127-5.325l-5.351,2.774,4.926-3.63a6.722,6.722,0,1,0-11.1,7.518,6.715,6.715,0,0,0-.778,1.226l4.789,2.486-5.1-1.714a6.722,6.722,0,0,0,1.084,6.313,6.723,6.723,0,1,0,10.568,0,6.72,6.72,0,0,0,0-8.312Z" transform="translate(-511.03 -264.521)"/><path class="e" d="M716.238,585.627a6.7,6.7,0,0,0,1.438,4.147,6.723,6.723,0,1,0,10.568,0C729.139,588.64,716.238,584.873,716.238,585.627Z" transform="translate(-511.103 -307.255)"/><ellipse class="d" cx="1.403" cy="1.838" rx="1.403" ry="1.838" transform="translate(222.153 280.994)"/><ellipse class="d" cx="1.403" cy="1.838" rx="1.403" ry="1.838" transform="translate(222.153 278.748)"/><ellipse class="d" cx="1.403" cy="1.838" rx="1.403" ry="1.838" transform="translate(222.153 276.503)"/><ellipse class="d" cx="1.403" cy="1.838" rx="1.403" ry="1.838" transform="translate(222.153 274.258)"/><ellipse class="d" cx="1.403" cy="1.838" rx="1.403" ry="1.838" transform="translate(222.153 272.013)"/><ellipse class="d" cx="1.403" cy="1.838" rx="1.403" ry="1.838" transform="translate(222.153 269.768)"/><ellipse class="d" cx="1.403" cy="1.838" rx="1.403" ry="1.838" transform="translate(222.153 267.522)"/><path class="b" d="M773.172,460.738a6.82,6.82,0,0,0,.519-.778l-3.687-.6,3.987.029a6.741,6.741,0,0,0,.127-5.325l-5.351,2.774,4.926-3.63a6.723,6.723,0,1,0-11.1,7.518,6.711,6.711,0,0,0-.778,1.226l4.788,2.486-5.1-1.714a6.722,6.722,0,0,0,1.084,6.313,6.723,6.723,0,1,0,10.567,0,6.72,6.72,0,0,0,0-8.312Z" transform="translate(-544.364 -206.743)"/><path class="e" d="M761.238,507.627a6.7,6.7,0,0,0,1.438,4.147,6.723,6.723,0,1,0,10.568,0C774.139,510.64,761.238,506.873,761.238,507.627Z" transform="translate(-544.436 -249.477)"/><ellipse class="d" cx="1.403" cy="1.838" rx="1.403" ry="1.838" transform="translate(307.967 252.734)"/><ellipse class="d" cx="1.403" cy="1.838" rx="1.403" ry="1.838" transform="translate(307.967 250.489)"/><ellipse class="d" cx="1.403" cy="1.838" rx="1.403" ry="1.838" transform="translate(307.967 248.244)"/><ellipse class="d" cx="1.403" cy="1.838" rx="1.403" ry="1.838" transform="translate(307.967 245.999)"/><ellipse class="d" cx="1.403" cy="1.838" rx="1.403" ry="1.838" transform="translate(307.967 243.754)"/><ellipse class="d" cx="1.403" cy="1.838" rx="1.403" ry="1.838" transform="translate(307.967 241.508)"/><ellipse class="d" cx="1.403" cy="1.838" rx="1.403" ry="1.838" transform="translate(307.967 239.263)"/><path class="b" d="M1105.78,376.059v.77c0,.039-.018.143-.028.215v.088a1.1,1.1,0,0,1-.042.223,1.274,1.274,0,0,1-.026.13c-.018.1-.042.187-.067.28s-.049.189-.078.277a5.548,5.548,0,0,1-.231.633c-.042.1-.086.2-.135.3s-.088.179-.135.259-.075.14-.114.207-.078.13-.122.194a.776.776,0,0,0-.049.08c-.018.028-.073.111-.109.163a.264.264,0,0,1-.039.052c-.044.067-.093.135-.145.2a6.768,6.768,0,0,1-.858.931c-.067.062-.135.119-.2.176l-.023.018-.184.148-.1.07c-.059.047-.124.091-.187.132a6.322,6.322,0,0,1-.928.531,2.294,2.294,0,0,1-.259.111,2.365,2.365,0,0,1-.26.1c-.093.029-.106.044-.16.06l-.094.034-.259.073-.259.07a.671.671,0,0,1-.1.021l-.22.047c-.161.034-.321.062-.485.08h-.026c-.057,0-.117.016-.174.018a1.773,1.773,0,0,1-.2.016h-.77a1.691,1.691,0,0,1-.2-.016,1.2,1.2,0,0,1-.166-.016h0c-.169-.018-.335-.039-.5-.073-.088-.016-.174-.036-.259-.057a.155.155,0,0,1-.057-.013,6.786,6.786,0,0,1-1.063-.345,5.824,5.824,0,0,1-.545-.259l-.259-.14-.182-.112c-.119-.073-.236-.153-.35-.236-.047-.034-.093-.067-.14-.106a.936.936,0,0,1-.1-.075c-.049-.042-.1-.078-.148-.122a.119.119,0,0,1-.039-.034c-.065-.052-.127-.111-.189-.166a6.729,6.729,0,0,1-.594-.622c-.062-.073-.122-.148-.179-.22s-.083-.109-.119-.163-.062-.086-.091-.127-.081-.117-.119-.179-.1-.156-.142-.233q-.139-.234-.259-.48c-.036-.075-.07-.148-.1-.226a3.9,3.9,0,0,1-.163-.407c-.036-.093-.068-.189-.1-.285s-.062-.207-.088-.314a.023.023,0,0,1,0-.013c-.023-.093-.047-.189-.065-.28s-.034-.161-.044-.241-.026-.145-.036-.218a.386.386,0,0,1,0-.057c-.016-.086-.023-.176-.031-.259s-.018-.2-.021-.3,0-.2,0-.308a6.7,6.7,0,0,1,1.438-4.147c-.113-.146-.222-.294-.321-.447-.034-.049-.065-.1-.094-.145s-.085-.14-.124-.21-.1-.166-.143-.259a.106.106,0,0,1-.013-.023,5.7,5.7,0,0,1-.244-.519c-.026-.062-.049-.122-.073-.182-.065-.174-.122-.347-.174-.518a5.99,5.99,0,0,1-.143-.62c-.013-.062-.023-.127-.031-.189a.028.028,0,0,1,0-.016,1.51,1.51,0,0,0-.029-.184c-.018-.148-.031-.3-.039-.454v-.373a6.739,6.739,0,0,1,.355-2.154l5.1,1.714-4.789-2.491a6.767,6.767,0,0,1,.778-1.224,6.741,6.741,0,0,1-.9-6.793,72.343,72.343,0,0,1,8.584,8.491q2.035,2.377,3.855,4.926a6.616,6.616,0,0,1-.949,1.662l-.021.026a6.685,6.685,0,0,1,1.39,4.124Z" transform="translate(-789.717 -137.848)"/><path class="e" d="M1092.24,398.627a6.7,6.7,0,0,0,1.438,4.147,6.723,6.723,0,1,0,10.568,0C1105.14,401.64,1092.24,397.873,1092.24,398.627Z" transform="translate(-789.622 -168.736)"/><path class="f" d="M634.427,221.871q-4.464,1.493-9.027,2.673,4.047-1.9,8.1-3.694C633.816,221.187,634.111,221.529,634.427,221.871Z" transform="translate(-443.816 -37.122)"/><path class="f" d="M225.5,99.116q2.243-.109,4.514-.106h.137c-1.846,1.216-3.7,2.383-5.571,3.477-.469.259-.939.544-1.41.806q-.534.3-1.068.594-4.21,2.294-8.478,4.462-3.241,1.644-6.5,3.21-4.265,2.043-8.581,3.938c-6.979,3.057-14.021,5.807-21.135,8.169q9.009-5.444,18.031-10.63,6.391-3.658,12.8-7.207l1.392-.778q4.682-2.593,9.38-5.118l.723-.391Z" transform="translate(-111.964 53.13)"/><path class="f" d="M646.161,321.67q1.092,2.453,2.046,4.978c-.394.189-.778.373-1.182.56-9.118,4.254-18.335,8.091-27.624,11.426q8.486-5.53,16.976-10.868Q641.266,324.688,646.161,321.67Z" transform="translate(-439.372 -111.804)"/><path class="d" d="M194.955,534.922c-.047-6.373-.923-12.655-3.461-18.34a30.794,30.794,0,0,0-1.473-2.919,32.3,32.3,0,0,0-2.668-3.93,34.561,34.561,0,0,0-2.445-2.777,44.477,44.477,0,0,0-7.021-5.792,75.893,75.893,0,0,0-13.572-7.083,134.288,134.288,0,0,0-17.889-5.963q-1.084-.275-2.175-.539c-.226-.057-.451-.109-.679-.163l-.734-.169h0c-.42-.1-.835-.189-1.255-.283q-1.877-.412-3.764-.778-3.269-.622-6.564-1.078c-4.75-.653-9.53-1.06-14.314-1.41l-2.3-.166h0l-6.16-.436c-2.056-.156-4.109-.319-6.16-.519l-.5-.026-.962-.1c-.85-.088-1.7-.176-2.554-.275q-2.466-.28-4.926-.646-2.735-.407-5.46-.959l-.3-.062c-.482-.1-.964-.2-1.444-.311q-.427-.093-.85-.194-2.613-.614-5.185-1.39a67.468,67.468,0,0,1-7.044-2.559q-1.149-.49-2.271-1.037l-.306-.153a48.1,48.1,0,0,1-11.693-7.858l-.293-.259-.622-.6c-.366-.355-.723-.721-1.076-1.086s-.682-.713-1.019-1.076c-1.957-2.118-3.788-4.363-5.66-6.57-1.62-1.906-3.269-3.78-5.058-5.527-.329-.321-.664-.633-1-.941a43.976,43.976,0,0,0-4.928-3.922c-.244-.169-.49-.332-.736-.493q-1.457-.964-2.989-1.815-1.5-.832-3.057-1.555-2.074-.965-4.218-1.734a52.956,52.956,0,0,0-7.417-2.056A53.561,53.561,0,0,0,9.684,438.3h0c-1.094.013-2.188.057-3.274.143l-.226.021c.018.055.036.109.049.166a1.671,1.671,0,0,0,.15.08c-.021.236-.039.472-.057.705a2.233,2.233,0,0,1-.047.622Q6,443.664,6,447.381a96.553,96.553,0,0,0,11.029,44.971l.1.192A97.439,97.439,0,0,0,48.147,527.4,96.446,96.446,0,0,0,82.4,542.226l2.144.438q4.444.861,9.03,1.3,4.667.451,9.471.454a97.508,97.508,0,0,0,13.308-.907h78.234C194.828,540.665,194.976,537.774,194.955,534.922Z" transform="translate(15 -198.194)"/><path class="g" d="M539.694,160.544a4.721,4.721,0,0,0-2.735.3,4.029,4.029,0,0,1-3.28,0,4.6,4.6,0,0,0-3.86.075,2.411,2.411,0,0,1-1.112.277c-1.556,0-2.867-1.576-3.137-3.656a2.97,2.97,0,0,0,.778-.843,4.4,4.4,0,0,1,7.85-.029,3.015,3.015,0,0,0,2.593,1.428h.039a3.264,3.264,0,0,1,2.864,2.448Z" transform="translate(-369.868 12.196)"/><path class="g" d="M544.922,147.361c-.474,1.631-1.62,2.784-2.956,2.784a2.386,2.386,0,0,1-1.1-.272,4.6,4.6,0,0,0-3.827-.075,4.064,4.064,0,0,1-1.633.347,4.014,4.014,0,0,1-1.255-.2c-.067-.018-.137-.047-.2-.07s-.127-.049-.189-.078a.127.127,0,0,0-.049-.018,1.962,1.962,0,0,0-.2-.083c-.065-.026-.13-.047-.194-.07a4.583,4.583,0,0,0-3.414.244,2.4,2.4,0,0,1-1.11.28,2.176,2.176,0,0,1-.623-.091.47.47,0,0,1-.082-.021.49.49,0,0,1-.093-.031,4.154,4.154,0,0,1-2.333-3.565,6.012,6.012,0,0,1-.047-.754c0-2.466,1.426-4.462,3.189-4.462h.086a2.943,2.943,0,0,0,2.593-1.4,4.653,4.653,0,0,1,.334-.482,96.994,96.994,0,0,1,13.1,8.017Z" transform="translate(-369.897 23.255)"/><ellipse class="h" cx="9.279" cy="12.146" rx="9.279" ry="12.146" transform="translate(268.078 270.354)"/><ellipse class="h" cx="9.279" cy="12.146" rx="9.279" ry="12.146" transform="translate(268.078 255.506)"/><ellipse class="h" cx="9.279" cy="12.146" rx="9.279" ry="12.146" transform="translate(268.078 240.661)"/><ellipse class="h" cx="9.279" cy="12.146" rx="9.279" ry="12.146" transform="translate(268.078 225.816)"/><ellipse class="h" cx="9.279" cy="12.146" rx="9.279" ry="12.146" transform="translate(268.078 210.968)"/><path class="h" d="M959.854,295.9a15.275,15.275,0,0,0-.856,5.087,14.642,14.642,0,0,0,1.934,7.423c1.7,2.873,4.356,4.724,7.345,4.724s5.647-1.851,7.345-4.724a14.6,14.6,0,0,0,1.932-7.127,70.883,70.883,0,0,0-8.107-3.09q-2.878-.9-5.854-1.556Z" transform="translate(-690.925 -92.715)"/><path class="h" d="M976.74,298.71q2.974.658,5.854,1.556a7.281,7.281,0,0,1-1.169.1,7.651,7.651,0,0,1-4.685-1.651Z" transform="translate(-704.068 -94.797)"/><ellipse class="d" cx="9.279" cy="12.146" rx="9.279" ry="12.146" transform="translate(95.153 268.28)"/><ellipse class="d" cx="9.279" cy="12.146" rx="9.279" ry="12.146" transform="translate(95.153 253.432)"/><ellipse class="d" cx="9.279" cy="12.146" rx="9.279" ry="12.146" transform="translate(95.153 238.587)"/><ellipse class="d" cx="9.279" cy="12.146" rx="9.279" ry="12.146" transform="translate(95.153 223.742)"/><ellipse class="d" cx="9.279" cy="12.146" rx="9.279" ry="12.146" transform="translate(95.153 208.894)"/><ellipse class="d" cx="9.279" cy="12.146" rx="9.279" ry="12.146" transform="translate(95.153 194.049)"/><ellipse class="d" cx="9.279" cy="12.146" rx="9.279" ry="12.146" transform="translate(95.153 179.204)"/><ellipse class="d" cx="9.279" cy="12.146" rx="9.279" ry="12.146" transform="translate(95.153 167.428)"/><path class="d" d="M297.366,102.594a10.3,10.3,0,0,0-3.414,3.583,12.572,12.572,0,0,0-.822,1.651,15.132,15.132,0,0,0-1.112,5.73v.041a14.641,14.641,0,0,0,1.934,7.423c1.7,2.873,4.356,4.724,7.345,4.724s5.647-1.851,7.345-4.724a15.211,15.211,0,0,0,0-14.845q-.273-.459-.573-.884a9.315,9.315,0,0,0-4.166-3.352,6.653,6.653,0,0,0-.7-.231h0Z" transform="translate(-196.865 51.13)"/><path class="d" d="M305.345,100.014h0q.708-.086,1.421-.161l5.774-.433a14.565,14.565,0,0,1-.92,3.37,13.14,13.14,0,0,1-.837,1.69c-1.7,2.873-4.356,4.724-7.345,4.724a7.259,7.259,0,0,1-2.774-.552,9.393,9.393,0,0,1-4-3.29c-.2-.283-.391-.576-.57-.881a13.227,13.227,0,0,1-1.182-2.626q2.279-.537,4.6-.957Z" transform="translate(-199.008 52.826)"/><ellipse class="d" cx="9.279" cy="12.146" rx="9.279" ry="12.146" transform="translate(35.523 231.724)"/><ellipse class="d" cx="9.279" cy="12.146" rx="9.279" ry="12.146" transform="translate(35.523 216.876)"/><ellipse class="d" cx="9.279" cy="12.146" rx="9.279" ry="12.146" transform="translate(35.523 202.031)"/><path class="d" d="M80.562,246.289a14.648,14.648,0,0,1-1.934,7.423c-1.7,2.873-4.356,4.726-7.345,4.726a8.209,8.209,0,0,1-6.274-3.2v-.018a11.29,11.29,0,0,1-1.058-1.511c-.158-.259-.306-.537-.446-.817a14.947,14.947,0,0,1-1.5-6.6q0-.674.054-1.33c.311-.5.625-.99.944-1.483.661-1.037,1.346-2.035,2.048-3.036q2.211-3.158,4.667-6.126a7.071,7.071,0,0,1,1.556-.174c2.989,0,5.647,1.851,7.345,4.726A14.656,14.656,0,0,1,80.562,246.289Z" transform="translate(-26.481 -46.967)"/><path class="d" d="M89.311,204.239a14.669,14.669,0,0,1-1.934,7.423c-1.7,2.873-4.358,4.721-7.345,4.721a8.137,8.137,0,0,1-6.222-3.147q2.211-3.158,4.667-6.126a96.36,96.36,0,0,1,9.23-9.709,14.855,14.855,0,0,1,1.6,6.838Z" transform="translate(-35.23 -19.752)"/><path class="h" d="M274,671.83q4.444.861,9.03,1.3,4.667.456,9.471.456a97.637,97.637,0,0,0,13.333-.913H419.976c.308.049.617.1.928.143a72.116,72.116,0,0,0,77.23-44.074q-3.037-1.972-6.124-3.845t-6.326-3.565c-.324-.174-.651-.342-.98-.519A85.927,85.927,0,0,0,472.35,615.6c-1.841-.6-3.7-1.128-5.564-1.556q-1.325-.308-2.658-.55-1.675-.308-3.37-.5a45.624,45.624,0,0,0-8.924-.192h0q-.819.062-1.644.163-1.584.184-3.16.5-1.944.389-3.827.954c-10.811,3.212-20.175,10.391-29.872,16.38l-.371.231a147.708,147.708,0,0,1-32.024,14.687q-3.14,1.011-6.321,1.882-3.63,1-7.285,1.815l-1.395.3q-2.8.6-5.616,1.084a150.04,150.04,0,0,1-34.7,1.95q-2.593-.156-5.2-.407-3.451-.332-6.881-.832h0l-.472-.068c-1.978-.293-3.956-.627-5.932-.962-2.37-.4-4.739-.793-7.111-1.115-.8-.112-1.6-.21-2.408-.3a62.642,62.642,0,0,0-7.609-.42c-.4,0-.8.016-1.208.034a34.788,34.788,0,0,0-12.662,2.751l-.223.1a23.778,23.778,0,0,0-5.737,3.606q-.741.633-1.431,1.343c-3.35,3.456-5.354,7.7-7,12.128a95.388,95.388,0,0,0,10.111,2.774Z" transform="translate(-174.445 -327.357)"/><circle class="i" cx="0.519" cy="0.519" r="0.519" transform="translate(121.333 204.235)"/><circle class="i" cx="0.519" cy="0.519" r="0.519" transform="translate(68.703 204.753)"/><circle class="i" cx="0.519" cy="0.519" r="0.519" transform="translate(179.925 231.716)"/><circle class="i" cx="0.519" cy="0.519" r="0.519" transform="translate(219.332 213.568)"/><path class="h" d="M116.363,674.72a28.1,28.1,0,0,0,.931-7.2c0-.628-.023-1.25-.062-1.867a28.233,28.233,0,0,0,1.206-8.208,28.8,28.8,0,0,0-.157-3c0-.065-.014-.122-.019-.176a27.837,27.837,0,0,0-2.852-9.533L103.66,648.4l-4.55,1.416,3.43-2.017,10.889-6.4a28.2,28.2,0,0,0-21.192-12.079,28.356,28.356,0,0,0-2.2-2.911l-9.046,2.813L66.585,633.69l12.361-7.259,6.85-4.047a28.2,28.2,0,0,0-36.7,2.056h0l-.161.158a97.464,97.464,0,0,0,31.018,34.87,96.445,96.445,0,0,0,34.253,14.814Z" transform="translate(-16.808 -330.248)"/><path class="d" d="M454.108,824.545H432.38c2.541-4.182,6.463-6.865,10.866-6.865S451.57,820.356,454.108,824.545Z" transform="translate(-300.838 -479.219)"/><path class="j" d="M454.108,824.545H432.38c2.541-4.182,6.463-6.865,10.866-6.865S451.57,820.356,454.108,824.545Z" transform="translate(-300.838 -479.219)"/><path class="h" d="M296.629,662.153q4.444.861,9.03,1.3,4.667.456,9.471.456A97.666,97.666,0,0,0,328.463,663h50.45a28.243,28.243,0,0,0,2.9-12.465c0-.627-.023-1.25-.062-1.867a28.157,28.157,0,0,0,1.213-7.529v-.669a28.084,28.084,0,0,0-3.02-12.7l-16.333,5.076,14.327-8.423a28.2,28.2,0,0,0-21.192-12.079q-.518-.8-1.107-1.556c-.106-.14-.215-.28-.324-.417q-.373-.475-.778-.931l-.659.2-22.765,7.078,18.765-11.047.446-.259a28.213,28.213,0,0,0-21.651-5.445c-.43.065-.858.145-1.283.236a28.241,28.241,0,0,0-21.454,20.245L311.9,627.3l2.162,2.491,4.833,5.564,3.77,4.337,3.357,3.866-5.771-4.161-8.1-5.851-7.944-5.737a28.209,28.209,0,0,0-9.725,33.906Z" transform="translate(-197.075 -317.68)"/><path class="h" d="M665.474,630.087c1.672-2.777.091-6.347-1.8-8.978s-4.205-5.39-4-8.62c.293-4.646,5.356-7.161,9.414-9.44a43.778,43.778,0,0,0,8.34-6.087,11.833,11.833,0,0,0,2.624-3.191,13.45,13.45,0,0,0,1.016-5.844q.2-9.96-.06-19.927Z" transform="translate(-469.195 -294.271)"/><path class="k" d="M1088.89,524.13q1.465,3.313,2.875,6.65,2.466,5.844,4.757,11.758a13.627,13.627,0,0,1,1.3,5.789,11.767,11.767,0,0,1-1.213,3.951l-.054.119q-.677,1.454-1.457,2.852a43.457,43.457,0,0,1-2.885,4.506q-.485.669-1,1.317a46.082,46.082,0,0,0-3.938,5.406,9.925,9.925,0,0,0-1.514,4.7,6.4,6.4,0,0,0,.34,2.209c1.037,3.067,4.236,4.732,6.984,6.448a14.8,14.8,0,0,1,3.489,2.927" transform="translate(-784.819 -261.775)"/><circle class="h" cx="7.259" cy="7.259" r="7.259" transform="translate(297.037 254.987)"/><circle class="h" cx="7.259" cy="7.259" r="7.259" transform="translate(309.868 267.087)"/><circle class="h" cx="7.259" cy="7.259" r="7.259" transform="translate(297.229 284.066)"/><circle class="h" cx="7.259" cy="7.259" r="7.259" transform="translate(300.921 301.89)"/><path class="k" d="M831.091,531.427c.488-3.2-2.333-5.9-5.079-7.617s-5.953-3.373-6.99-6.45c-1.5-4.407,2.227-8.657,5.113-12.31a43.668,43.668,0,0,0,5.4-8.815,11.772,11.772,0,0,0,1.213-3.949,13.262,13.262,0,0,0-1.3-5.789q-3.6-9.3-7.633-18.407" transform="translate(-586.987 -220.263)"/><circle class="h" cx="7.259" cy="7.259" r="7.259" transform="translate(227.815 240.469)"/><circle class="h" cx="7.259" cy="7.259" r="7.259" transform="translate(240.646 252.568)"/><circle class="h" cx="7.259" cy="7.259" r="7.259" transform="translate(228.007 269.547)"/><circle class="h" cx="7.259" cy="7.259" r="7.259" transform="translate(231.699 287.371)"/><path class="l" d="M370.8,544.274c.757-1.138.161-2.673-.583-3.819s-1.67-2.349-1.522-3.707c.21-1.952,2.393-2.914,4.148-3.8a18.4,18.4,0,0,0,3.63-2.4,5,5,0,0,0,1.169-1.3,5.716,5.716,0,0,0,.539-2.442q.28-4.2.358-8.4" transform="translate(-253.652 -257.538)"/><circle class="d" cx="3.062" cy="3.062" r="3.062" transform="translate(121.931 257.811)"/><circle class="d" cx="3.062" cy="3.062" r="3.062" transform="translate(124.682 264.722)"/><circle class="d" cx="3.062" cy="3.062" r="3.062" transform="translate(116.827 268.964)"/><circle class="d" cx="3.062" cy="3.062" r="3.062" transform="translate(115.064 276.436)"/><path d="M880.784,73.36a4.6,4.6,0,0,1-.6,1.75,3.738,3.738,0,0,1,.368.412,4.6,4.6,0,0,0,.236-2.162Z" transform="translate(-632.543 72.13)"/><path class="g" d="M918.067,99.387a5.268,5.268,0,0,0-3.044.332,4.478,4.478,0,0,1-3.656,0,5.133,5.133,0,0,0-4.3.083,2.667,2.667,0,0,1-1.237.311c-1.742,0-3.191-1.755-3.492-4.073a3.356,3.356,0,0,0,.871-.939,4.9,4.9,0,0,1,8.742-.029,3.371,3.371,0,0,0,2.893,1.589h.047C916.267,96.654,917.468,97.767,918.067,99.387Z" transform="translate(-648.957 58.026)"/><path class="g" d="M923.331,73.624l-2.815,1.786,1.708-3.111a2.771,2.771,0,0,0-1.7-.609h-.044a3.109,3.109,0,0,1-.583-.041l-.957.6.41-.744a3.4,3.4,0,0,1-1.67-1.268l-1.714,1.094,1.079-1.963a4.983,4.983,0,0,0-3.827-1.934,5.23,5.23,0,0,0-4.382,2.7,3.277,3.277,0,0,1-2.9,1.556h-.085c-1.96,0-3.552,2.224-3.552,4.967s1.592,4.967,3.552,4.967a2.637,2.637,0,0,0,1.237-.311,5.134,5.134,0,0,1,4.3-.083,4.536,4.536,0,0,0,1.838.394,4.484,4.484,0,0,0,1.815-.386,5.13,5.13,0,0,1,4.26.083,2.655,2.655,0,0,0,1.224.3c1.963,0,3.552-2.224,3.552-4.967a6.31,6.31,0,0,0-.746-3.03Z" transform="translate(-648.927 76.522)"/><path class="g" d="M981.807,219.351a7.492,7.492,0,0,0-4.348.474,6.406,6.406,0,0,1-5.221,0,7.327,7.327,0,0,0-6.139.119,3.8,3.8,0,0,1-1.768.443c-2.489,0-4.56-2.507-4.991-5.815a4.82,4.82,0,0,0,1.244-1.343,6.991,6.991,0,0,1,12.481-.042,4.8,4.8,0,0,0,4.148,2.271h.065C979.243,215.447,980.96,217.036,981.807,219.351Z" transform="translate(-691.179 -28.619)"/><g class="t" transform="matrix(1, 0, 0, 1, 21, 135.39)"><path class="g" d="M989.34,182.538l-4.024,2.554,2.442-4.444a3.993,3.993,0,0,0-2.434-.868h-.065a4.966,4.966,0,0,1-.835-.062l-1.364.863.586-1.063a4.843,4.843,0,0,1-2.385-1.815l-2.442,1.556,1.556-2.8a7.148,7.148,0,0,0-5.468-2.766,7.5,7.5,0,0,0-6.258,3.863,4.667,4.667,0,0,1-4.148,2.23h-.137c-2.8,0-5.074,3.178-5.074,7.1s2.271,7.1,5.074,7.1a3.816,3.816,0,0,0,1.768-.441,7.316,7.316,0,0,1,6.139-.122,6.406,6.406,0,0,0,5.221.013,7.334,7.334,0,0,1,6.087.117,3.8,3.8,0,0,0,1.748.433c2.8,0,5.074-3.176,5.074-7.1a9.012,9.012,0,0,0-1.061-4.348Z" transform="translate(-712.14 -137.58)"/></g><path class="g" d="M698.62,172.387a5.269,5.269,0,0,1,3.044.332,4.469,4.469,0,0,0,3.653,0,5.133,5.133,0,0,1,4.3.083,2.676,2.676,0,0,0,1.237.311c1.742,0,3.194-1.755,3.495-4.073a3.316,3.316,0,0,1-.871-.939,4.9,4.9,0,0,0-8.742-.029,3.371,3.371,0,0,1-2.9,1.581h-.044A3.647,3.647,0,0,0,698.62,172.387Z" transform="translate(-498.053 3.952)"/><path class="g" d="M676.021,146.616l2.815,1.786-1.711-3.111a2.776,2.776,0,0,1,1.7-.609h.047a3.108,3.108,0,0,0,.584-.041l.954.6L680,144.5a3.411,3.411,0,0,0,1.672-1.268l1.708,1.084-1.081-1.963a4.988,4.988,0,0,1,3.829-1.934,5.231,5.231,0,0,1,4.382,2.7,3.274,3.274,0,0,0,2.9,1.556h.093c1.962,0,3.552,2.224,3.552,4.967s-1.589,4.967-3.552,4.967a2.652,2.652,0,0,1-1.237-.311,5.134,5.134,0,0,0-4.3-.083,4.523,4.523,0,0,1-1.836.394,4.463,4.463,0,0,1-1.814-.386,5.136,5.136,0,0,0-4.263.083,2.648,2.648,0,0,1-1.224.3c-1.96,0-3.552-2.224-3.552-4.967A6.312,6.312,0,0,1,676.021,146.616Z" transform="translate(-480.763 22.455)"/><path class="f" d="M262.406,259.161h0c-.013-.848-.041-1.685-.088-2.525q-.083-1.581-.231-3.15a71.078,71.078,0,0,0-1.408-8.815c-.029-.13-.06-.259-.091-.391q-.778-3.357-1.859-6.593-.731-2.173-1.594-4.265h0q-.306-.754-.633-1.491a70.384,70.384,0,0,0-3.37-6.741h0l-.163-.285c-.376-.653-.778-1.3-1.161-1.947h0l-.158-.259c-.075-.122-.15-.226-.215-.342v-.016q-.762-1.211-1.571-2.383a71.611,71.611,0,0,0-5.522-7.026h0a72.037,72.037,0,0,0-9.616-8.965h0c-.863-.661-1.737-1.309-2.631-1.937h0a70.882,70.882,0,0,0-32.35-12.413q-2.792-.34-5.652-.454-.7-.031-1.408-.041c-.519-.016-1.037-.018-1.556-.018a72.28,72.28,0,0,0-9.11.576,71.056,71.056,0,0,0-14.788,3.531,71.353,71.353,0,0,0-61.675-35.492,70.3,70.3,0,0,0-7.612.407c-.28.023-.56.057-.84.091a70.979,70.979,0,0,0-10.155,1.957c-.99-1.628-2.046-3.223-3.163-4.765s-2.253-3-3.466-4.431q-1.556-1.815-3.21-3.531a1.446,1.446,0,0,0-.109-.109,70.976,70.976,0,0,0-5.429-5.019c-1.011-.845-2.046-1.664-3.111-2.447q-2-1.493-4.1-2.836-1.478-.949-3-1.815a97.541,97.541,0,0,0-33.11,25.83q-2.458,2.963-4.667,6.126c-.7,1-1.387,2.009-2.048,3.036-.319.493-.633.985-.944,1.483q-1.54,2.466-2.919,5.027-1.47,2.714-2.769,5.527a.368.368,0,0,0-.021.047A96.066,96.066,0,0,0,8.465,201.09h0q-.589,2.551-1.037,5.149-.176,1-.327,2l-.031.223c-.259,1.815-.49,3.63-.659,5.478l-.226.021c.018.054.036.109.049.166a1.671,1.671,0,0,0,.15.08c-.021.236-.039.472-.057.7a2.232,2.232,0,0,1-.049.625Q6,219.163,6,222.88a96.553,96.553,0,0,0,11.029,44.971c.086.013.174.026.259.034h0a71.615,71.615,0,0,0,27.277-1.934q1.213,2,2.556,3.915.993,1.421,2.053,2.784a71.644,71.644,0,0,0,21.557,18.586c.366.207.736.407,1.107.607a70.186,70.186,0,0,0,10.383,4.547q2.074.723,4.229,1.32c.08.021.161.047.241.065a70.746,70.746,0,0,0,13.774,2.333q2.52.184,5.087.184a72.057,72.057,0,0,0,11.491-.923,70.443,70.443,0,0,0,7.052-1.522h0q2.722-.729,5.354-1.667.739,1.268,1.527,2.5a70.374,70.374,0,0,0,5.95,8.027q1.631,1.913,3.4,3.7a71.557,71.557,0,0,0,10.228,8.607H230.53l.928.143a71.958,71.958,0,0,0,10.44-8.74,71.115,71.115,0,0,0,19.47-37.932q.355-2.074.589-4.164a71.917,71.917,0,0,0,.448-7.941Z" transform="translate(15 26.979)"/><g transform="translate(188.982 135.39)"><path class="m" d="M2.876,31.035a137.832,137.832,0,0,0,10.616-14.2c3.163-5.278,5.752-9.975,6.569-11.769C22.009.784,15.575-1.219,14.119.776Q10.814,5.307,0,29.289Z" transform="translate(9.763 69.231)"/><path class="n" d="M12.531,30.5,22.264,6c2.082-4.466-7.971-7.4-9.5-5.323C9.29,5.4,1.035,24.014,0,25.42Z" transform="translate(10.824 67.905)"/><g transform="translate(50.54 94.294) rotate(141)"><path class="m" d="M.479,1.415C.212,4.757-.284,16.328.212,21.683.355,23.222.5,24.71.656,26.106c.45,4.149,8.143,4.018,7.532.076C6.667,16.366,3.989,2.609,3.8,1.42,3.528-.246.646-.686.479,1.415Z" transform="translate(0 0)"/></g><g transform="matrix(-0.719, 0.695, -0.695, -0.719, 53.002, 94.413)"><path class="o" d="M1.185,4.23a.53.53,0,0,1-.68-.357L0,2.091A17.019,17.019,0,0,1,.239,0H15.18s.582,1.925-.672,2.079-2.085.277-2.085.277l-6.945,3.1a.265.265,0,0,1-.353-.141L4.679,4.228a6,6,0,0,0-1.888-.542Z" transform="translate(0 0)"/></g><g transform="translate(0 97.701)"><path class="o" d="M14.148,1.579a.531.531,0,0,1,.68.358l.506,1.784A17.04,17.04,0,0,1,15.1,5.814H.135S-.448,3.886.808,3.733,2.9,3.455,2.9,3.455L9.85.355A.265.265,0,0,1,10.2.5L10.65,1.58a6.012,6.012,0,0,0,1.89.543Z" transform="translate(0 -0.332)"/></g><path class="p" d="M15.3,17.493s12.134-1.977,16.255-2.7C39.391,13.409,41.674,9.195,40.324,0H25.9C23.031.827,1.961,10.231,1.961,10.231-.566,11.485-.1,15.185.366,16.4c.028.075,12.782,21.9,12.782,21.9l11.8-7.519L15.282,18.379S14.9,17.607,15.3,17.493Z" transform="translate(21.286 57.64)"/><path class="m" d="M.325.574c-.3.183-.62.87.163,1.407C2.44,3.319,5.253,5.661,5.633,6.432,6.41,8.009,10.294,28.3,10.294,28.3l5.808-.022S9.466,6.784,9.057,5.77C8.443,4.249,9.742,1.932,10.3.687,9.422.3,9.015.8,8.57,1.3A1.574,1.574,0,0,1,6.4,1.814C4.893,1.113,3.647,0,2.162,0A3.445,3.445,0,0,0,.325.574Zm52.03,12.172-7.814,4.607,2.5,4.318,7.514-7.33a22.781,22.781,0,0,0,5.374-3.089c.314-.379.656-1.1-.822-.78s-3.046.6-3.324.119.541-1.217.027-1.846a.194.194,0,0,0-.157-.075Q54.943,8.669,52.355,12.745Z" transform="translate(77.39 71.66) rotate(180)"/><path class="q" d="M0,29.361l2.251.592C6.963,17.544,26.216,10.489,27.768,5.831c.569-1.708-.609-2.7.086-3.174L25.074.223C24.519.766,23.54-.4,21.233.154S1.318,14.295,0,29.361Z" transform="matrix(-0.996, 0.087, -0.087, -0.996, 51.956, 56.128)"/><path class="r" d="M17.893,38.252C13.58,34.934,2.874,25.007.085,6.521-.409,3.253,1.43,2.54,1.166,1.077L5.068,0c0,1.077,2.961,1.521,3.725,4.317.429,1.57,1.057,3.532,1.808,5.713a17.094,17.094,0,0,1,1.813-7.748C15.392-3.209,32.6,2.813,34.4,8.415c2.2,6.865-7.834,11.2-7.32,28.62a2.822,2.822,0,0,1,.039.969c.006.11.011.219.018.33l-.087.015a2.786,2.786,0,0,1-2.5,2.058l-3.7.259q-.1.007-.2.007A2.786,2.786,0,0,1,17.893,38.252Z" transform="translate(72.605 64.998) rotate(180)"/><g transform="translate(41.841 10.449)"><path class="m" d="M0,0,2.164,10.023A7.026,7.026,0,0,0,.277,15.089c.393,5.57,8.2,4.345,9.713,1.533s1.337-9.942-.624-10.445c-.782-.2-2.449.29-4.145,1.306L6.286,0Z" transform="translate(10.175 19.191) rotate(180)"/></g><path class="s" d="M3.8,9.2c.839-.138,3.1-.232,3.515-.232.266,0,.555.061.712-.184.129-.2.082-.539.12-.771.045-.27.108-.536.173-.8a8.154,8.154,0,0,1,.847-2.151A6.611,6.611,0,0,1,12.3,2.224a10.063,10.063,0,0,1,4.758-.654A20.887,20.887,0,0,1,21.921,2.8a10.2,10.2,0,0,0,4.752.458A11.4,11.4,0,0,0,30.881,1.3,7.839,7.839,0,0,1,35.529.018a8.952,8.952,0,0,1,4.24,1.608,6.917,6.917,0,0,1,2.734,3.1,4.247,4.247,0,0,1-.386,4.323c-1.426,1.858-4.072,2.338-6.274,2.29a11.988,11.988,0,0,1-3.727-.683,36.038,36.038,0,0,1-4.49-2.3,11.683,11.683,0,0,0-2.195-.878,2.448,2.448,0,0,0-2.139.142,10.1,10.1,0,0,1-2.155,1.234,6.951,6.951,0,0,1-2.431.437,23.969,23.969,0,0,1-4.769-.852A9.789,9.789,0,0,0,9.99,8.162c-.543.11-1.337.337-1.534.9,3.3.6,4.6,4.684,3.67,7.684-.5,1.619-3.524,3.511-4.7,2.66-.744-.539-.292-1.247,0-1.714.56-.895.752-2.044-.285-2.667-.894-.537-1.834.739-1.851.737A11.486,11.486,0,0,1,1.46,12.792C.017,12.877-.2,11.926.143,11.148S2.638,9.391,3.8,9.2Z" transform="translate(42.405 0)"/></g></g></svg>